<?xml version="1.0" standalone="no"?>
<!DOCTYPE svg PUBLIC "-//W3C//DTD SVG 20010904//EN"
 "http://www.w3.org/TR/2001/REC-SVG-20010904/DTD/svg10.dtd">
<svg version="1.0" xmlns="http://www.w3.org/2000/svg"
 width="1024.000000pt" height="1024.000000pt" viewBox="0 0 1024.000000 1024.000000"
 preserveAspectRatio="xMidYMid meet">

<g transform="translate(0.000000,1024.000000) scale(0.100000,-0.100000)"
fill="#000000" stroke="none">
<path d="M4598 7006 c-55 -20 -69 -30 -291 -219 -817 -696 -987 -821 -1257
-922 -73 -27 -85 -35 -88 -57 -2 -13 4 -30 12 -37 36 -30 290 72 462 184 171
111 365 266 862 689 156 133 300 249 320 259 75 35 119 13 304 -151 66 -59
132 -116 145 -127 l25 -21 -277 -218 c-224 -177 -511 -396 -709 -541 -26 -19
-26 -21 -11 -42 9 -13 26 -23 39 -23 52 0 359 222 918 662 389 307 412 324
460 333 55 10 88 -11 274 -173 413 -360 535 -462 554 -462 11 0 27 11 36 25
24 36 11 55 -97 144 -90 75 -103 96 -49 81 39 -11 34 -8 200 -129 209 -152
433 -300 525 -348 151 -78 313 -124 481 -138 68 -5 84 -3 98 10 9 9 16 24 16
34 0 14 -18 20 -110 34 -275 41 -460 136 -927 475 -101 73 -202 142 -225 152
-51 23 -116 25 -162 6 l-34 -14 -178 156 c-290 252 -300 258 -398 250 -66 -6
-103 -24 -206 -103 -47 -36 -97 -74 -111 -85 l-27 -20 -153 136 c-85 74 -171
146 -191 160 -75 52 -156 66 -230 40z"/>
<path d="M5131 5380 c-47 -10 -116 -47 -143 -77 -36 -39 -60 -113 -56 -167 10
-117 59 -162 250 -231 145 -52 181 -81 181 -144 0 -52 -24 -88 -76 -112 -86
-38 -204 -9 -263 65 -16 20 -32 36 -37 36 -4 0 -25 -11 -47 -25 -39 -25 -40
-26 -26 -53 23 -43 87 -99 141 -123 67 -30 174 -36 247 -15 158 46 233 217
151 343 -32 51 -84 84 -181 119 -134 48 -172 66 -198 97 -22 26 -25 38 -21 76
6 53 36 85 98 101 84 23 190 -20 219 -89 l13 -31 46 26 c25 15 48 28 50 30 9
7 -52 96 -82 118 -68 52 -175 75 -266 56z"/>
<path d="M6482 5375 c-123 -27 -221 -106 -279 -223 -35 -69 -38 -84 -41 -176
-4 -114 16 -195 68 -271 148 -215 460 -247 624 -64 25 28 46 54 46 58 0 3 -18
18 -40 34 l-39 27 -49 -49 c-86 -86 -210 -104 -327 -46 -183 89 -228 350 -88
505 61 68 110 92 201 98 66 4 78 2 137 -27 37 -19 76 -47 91 -66 l26 -35 44
31 c24 16 44 34 44 39 0 20 -102 109 -152 134 -52 25 -139 47 -182 45 -11 0
-50 -7 -84 -14z"/>
<path d="M1246 5002 c-76 -202 -147 -388 -157 -414 l-19 -48 63 0 63 0 38 105
38 105 178 0 178 0 28 -72 c56 -152 45 -138 114 -138 34 0 60 4 58 8 -1 5 -72
192 -157 415 l-155 407 -65 0 -66 0 -139 -368z m214 216 c0 -11 64 -191 111
-310 l19 -48 -139 0 -138 0 63 171 c35 94 64 178 64 185 0 8 5 14 10 14 6 0
10 -5 10 -12z"/>
<path d="M2100 4955 l0 -415 60 0 60 0 2 315 3 315 220 -315 220 -314 63 -1
62 0 0 415 0 415 -60 0 -60 0 -2 -314 -3 -313 -219 313 -220 314 -63 0 -63 0
0 -415z"/>
<path d="M3140 4955 l0 -415 174 0 c202 0 268 15 351 78 204 155 224 471 40
641 -96 88 -178 111 -405 111 l-160 0 0 -415z m368 290 c69 -21 129 -69 165
-134 25 -43 31 -69 35 -131 6 -103 -15 -172 -69 -234 -68 -77 -103 -90 -251
-94 l-128 -4 0 306 0 306 98 0 c59 0 119 -6 150 -15z"/>
<path d="M4130 4955 l0 -415 260 0 260 0 0 55 0 55 -200 0 -200 0 0 125 0 125
170 0 170 0 0 55 0 55 -170 0 -170 0 0 125 0 125 190 0 190 0 0 55 0 55 -250
0 -250 0 0 -415z"/>
<path d="M7210 4955 l0 -415 60 0 60 0 0 415 0 415 -60 0 -60 0 0 -415z"/>
<path d="M7610 5315 l0 -55 130 0 130 0 0 -360 0 -360 58 0 57 0 0 358 0 357
133 3 132 3 0 54 0 55 -320 0 -320 0 0 -55z"/>
<path d="M8488 5293 c27 -43 97 -156 156 -252 l107 -173 -4 -164 -4 -164 58 0
59 0 0 166 0 167 148 240 c81 132 149 244 150 249 2 5 -26 8 -64 6 l-67 -3
-108 -178 c-59 -98 -110 -181 -112 -184 -3 -2 -55 79 -117 181 l-111 186 -70
0 -69 0 48 -77z"/>
<path d="M2288 3963 c7 -3 16 -2 19 1 4 3 -2 6 -13 5 -11 0 -14 -3 -6 -6z"/>
<path d="M2408 3963 c6 -2 18 -2 25 0 6 3 1 5 -13 5 -14 0 -19 -2 -12 -5z"/>
<path d="M2458 3963 c6 -2 18 -2 25 0 6 3 1 5 -13 5 -14 0 -19 -2 -12 -5z"/>
<path d="M2523 3963 c9 -2 25 -2 35 0 9 3 1 5 -18 5 -19 0 -27 -2 -17 -5z"/>
<path d="M2598 3963 c6 -2 18 -2 25 0 6 3 1 5 -13 5 -14 0 -19 -2 -12 -5z"/>
<path d="M3253 3963 c339 -2 895 -2 1235 0 339 1 61 2 -618 2 -679 0 -957 -1
-617 -2z"/>
<path d="M5471 3966 c3 -3 65 -6 139 -7 115 -1 237 -12 220 -19 -16 -6 -67
-13 -160 -20 -59 -4 220 -6 640 -4 410 2 1069 5 1465 6 467 2 629 4 460 8
-345 7 -332 16 30 21 156 2 162 3 75 9 -108 8 -2876 13 -2869 6z"/>
<path d="M3308 3913 c314 -2 830 -2 1145 0 314 1 57 2 -573 2 -630 0 -887 -1
-572 -2z"/>
</g>
</svg>
