<?xml version="1.0" standalone="no"?>
<!DOCTYPE svg PUBLIC "-//W3C//DTD SVG 20010904//EN"
 "http://www.w3.org/TR/2001/REC-SVG-20010904/DTD/svg10.dtd">
<svg version="1.0" xmlns="http://www.w3.org/2000/svg"
 width="1024.000000pt" height="1024.000000pt" viewBox="0 0 1024.000000 1024.000000"
 preserveAspectRatio="xMidYMid meet">
<metadata>
Created by potrace 1.16, written by Peter Selinger 2001-2019
</metadata>
<g transform="translate(0.000000,1024.000000) scale(0.100000,-0.100000)"
fill="#000000" stroke="none">
<path d="M0 5120 l0 -5120 5120 0 5120 0 0 5120 0 5120 -5120 0 -5120 0 0
-5120z m4706 2025 c60 -18 136 -69 264 -179 138 -118 214 -176 233 -176 9 0
56 32 104 71 135 109 210 140 284 118 48 -15 182 -116 392 -295 l164 -141 44
23 c79 41 120 29 244 -72 343 -279 479 -374 667 -464 149 -71 262 -109 345
-117 68 -6 86 -19 81 -55 -8 -58 -135 -57 -305 3 -236 83 -414 192 -741 451
-150 120 -212 158 -212 131 0 -4 14 -22 32 -40 28 -29 30 -35 20 -58 -28 -61
-60 -49 -217 86 -513 440 -530 451 -608 412 -23 -12 -159 -114 -302 -227 -971
-769 -980 -776 -1013 -776 -31 0 -62 26 -62 51 0 12 42 52 111 106 377 297
818 648 839 669 l25 25 -60 57 c-99 93 -257 222 -310 253 -53 31 -110 38 -148
18 -12 -7 -80 -62 -152 -124 -687 -589 -928 -786 -1138 -927 -191 -127 -298
-166 -341 -122 -35 35 -21 52 84 101 206 96 400 246 1183 915 279 238 327 273
392 289 44 10 47 10 101 -6z m719 -1667 c28 -15 65 -41 82 -60 l33 -34 -39
-38 -39 -38 -50 36 c-31 23 -70 40 -104 47 -49 10 -61 9 -102 -9 -76 -34 -97
-119 -42 -171 13 -12 67 -37 120 -56 216 -78 276 -136 276 -267 -1 -234 -324
-328 -520 -151 -77 69 -78 75 -22 112 l47 30 40 -39 c123 -120 314 -99 332 37
8 58 -35 103 -130 138 -147 55 -200 79 -229 103 -100 84 -90 242 20 336 71 60
233 72 327 24z m1376 -6 c55 -27 171 -126 158 -135 -2 -1 -21 -17 -42 -35
l-39 -33 -40 37 c-201 181 -501 49 -502 -221 -1 -130 61 -238 165 -291 112
-56 229 -40 323 46 l53 49 42 -30 c22 -17 41 -34 41 -39 0 -4 -29 -35 -64 -68
-130 -121 -283 -142 -453 -63 -162 76 -261 263 -236 446 14 96 50 172 114 240
95 100 186 137 330 132 73 -3 96 -8 150 -35z m-5019 -377 c87 -220 160 -408
164 -417 5 -16 -2 -18 -59 -18 l-65 0 -42 105 -42 105 -182 0 -181 0 -39 -105
-39 -105 -64 0 c-62 0 -64 1 -57 23 3 12 74 191 156 397 83 206 154 385 159
398 8 21 14 23 71 20 l63 -3 157 -400z m742 94 l211 -306 3 303 2 304 65 0 65
0 0 -415 0 -416 -67 3 -67 3 -210 307 -211 307 -3 -310 -2 -309 -65 0 -65 0 0
419 0 419 67 -2 67 -1 210 -306z m2196 246 l0 -55 -199 0 -199 0 4 -122 3
-123 171 -3 170 -2 0 -53 0 -52 -170 0 c-94 0 -170 -3 -170 -7 0 -5 0 -60 0
-123 l0 -115 197 -2 197 -3 0 -55 1 -55 -263 -3 -262 -2 -2 416 c-2 228 -2
416 -1 417 1 1 119 1 262 -1 l261 -3 0 -54z m2650 -355 l0 -421 -62 3 -63 3
-3 418 -2 417 65 0 65 0 0 -420z m920 360 l0 -60 -130 0 -130 0 0 -360 0 -361
-62 3 -62 3 2 358 2 357 -130 0 -130 0 0 60 0 60 320 0 320 0 0 -60z m412 -98
c54 -87 100 -166 104 -175 3 -9 9 -17 13 -17 3 1 53 79 110 175 l105 175 73 0
73 0 -48 -77 c-27 -43 -94 -153 -150 -244 l-102 -166 0 -177 0 -177 -61 3 -61
3 1 173 2 174 -87 141 c-48 78 -116 188 -151 245 l-63 102 73 0 73 0 96 -158z
m-5029 116 c81 -38 168 -124 203 -201 23 -51 29 -80 32 -159 5 -110 -10 -170
-63 -253 -40 -64 -84 -101 -160 -136 -84 -39 -168 -50 -342 -44 l-148 6 -3
410 -2 411 212 -4 c206 -4 215 -5 271 -30z m4975 -1383 l3 -25 -3465 0 -3466
0 0 23 c0 13 2 26 4 28 2 2 1561 3 3463 2 l3458 -3 3 -25z"/>
<path d="M1494 5176 c-34 -88 -64 -169 -69 -178 -7 -17 3 -18 129 -18 75 0
136 4 136 9 0 11 -125 339 -131 345 -2 2 -31 -69 -65 -158z"/>
<path d="M3320 5080 l0 -302 123 4 c101 3 131 8 175 27 102 46 162 145 162
267 0 123 -58 222 -157 270 -51 25 -70 29 -180 32 l-123 4 0 -302z"/>
</g>
</svg>
